<?xml version="1.0" encoding="UTF-8"?>
<svg version="1.1" xmlns="http://www.w3.org/2000/svg" width="500" height="500">
<path d="M0 0 C165 0 330 0 500 0 C500 165 500 330 500 500 C335 500 170 500 0 500 C0 335 0 170 0 0 Z " fill="#000000" transform="translate(0,0)"/>
<path d="M0 0 C43.8075 -0.0928125 43.8075 -0.0928125 88.5 -0.1875 C97.69939453 -0.21481201 106.89878906 -0.24212402 116.37695312 -0.27026367 C127.66699219 -0.28381348 127.66699219 -0.28381348 132.96325684 -0.28633118 C136.63844306 -0.28911031 140.31349742 -0.30028918 143.98864746 -0.31672668 C148.69433115 -0.33749058 153.39982647 -0.34343937 158.10555172 -0.33921683 C159.8214165 -0.34009819 161.5372887 -0.34593571 163.25311375 -0.35764539 C177.48984096 -0.45019461 191.10997728 0.94396102 204.5 6.1875 C205.28842285 6.48865723 206.0768457 6.78981445 206.88916016 7.10009766 C236.16632186 18.54870859 260.51162961 37.78748096 275 66 C275.55558594 67.05960937 276.11117188 68.11921875 276.68359375 69.2109375 C287.50109015 91.06174071 290.04515753 119.65880052 283 143 C282.70996094 144.23169922 282.70996094 144.23169922 282.4140625 145.48828125 C275.81278157 171.67907765 254.96542956 195.05210093 232.625 209.1875 C214.95538795 219.62098521 193.99661986 229 173 229 C173 290.38 173 351.76 173 415 C200.39 415 227.78 415 256 415 C256 436.12 256 457.24 256 479 C172.18 479 88.36 479 2 479 C2 457.88 2 436.76 2 415 C29.72 415 57.44 415 86 415 C86 353.62 86 292.24 86 229 C57.62 229 29.24 229 0 229 C0 153.43 0 77.86 0 0 Z " fill="#FEFEFE" transform="translate(107,15)"/>
<path d="M0 0 C1.92453003 0.00640503 1.92453003 0.00640503 3.88793945 0.01293945 C13.77801719 0.19005089 21.83129532 1.46322923 30.875 5.5 C31.80699219 5.88414063 32.73898437 6.26828125 33.69921875 6.6640625 C40.20662654 9.59389082 45.54539173 13.80242861 50.875 18.5 C51.638125 19.16773437 52.40125 19.83546875 53.1875 20.5234375 C65.85736032 32.35743898 74.39246288 48.0968917 75.4140625 65.46875 C75.83767449 78.91952242 75.40555746 91.11508144 69.875 103.5 C69.4521875 104.54414063 69.029375 105.58828125 68.59375 106.6640625 C60.95050144 123.86137176 46.05887313 136.37444957 28.875 143.5 C8.78293822 150.63165333 -10.8366389 150.79582632 -30.35449219 141.76416016 C-48.8499223 132.75923555 -62.52772623 117.95966781 -69.40722656 98.5144043 C-75.67232332 79.85216562 -75.05562481 59.38921536 -66.29296875 41.61328125 C-55.95154901 22.09475909 -40.25653004 8.94556844 -19.515625 1.80859375 C-13.073414 -0.02949372 -6.65925096 -0.03342431 0 0 Z " fill="#000000" transform="translate(235.125,55.5)"/>
</svg>
