<svg xmlns="http://www.w3.org/2000/svg" viewBox="107 15 149 464" width="32" height="32">
  <!-- P body with bowl punched out using evenodd fill rule -->
  <path fill-rule="evenodd" fill="#f0a341"
    d="M107 15 C150.8075 14.9071875 150.8075 14.9071875 195.5 14.8125 C204.69939453 14.78518799 213.89878906 14.75787598 223.37695312 14.72973633 C234.66699219 14.71618652 234.66699219 14.71618652 239.96325684 14.71366882 C243.63844306 14.71088969 247.31349742 14.69971082 250.98864746 14.68327332 C255.69433115 14.66250942 260.39982647 14.65656063 265.10555172 14.66078317 C266.8214165 14.65990181 268.5372887 14.65406429 270.25311375 14.64235461 C284.48984096 14.54980539 298.10997728 15.94396102 311.5 21.1875 C312.28842285 21.48865723 313.0768457 21.78981445 313.88916016 22.10009766 C343.16632186 33.54870859 367.51162961 52.78748096 382 81 C382.55558594 82.05960937 383.11117188 83.11921875 383.68359375 84.2109375 C394.50109015 106.06174071 397.04515753 134.65880052 390 158 C389.70996094 159.23169922 389.70996094 159.23169922 389.4140625 160.48828125 C382.81278157 186.67907765 361.96542956 210.05210093 339.625 224.1875 C321.95538795 234.62098521 300.99661986 244 280 244 C280 305.38 280 366.76 280 430 C307.39 430 334.78 430 363 430 C363 451.12 363 472.24 363 494 C279.18 494 195.36 494 109 494 C109 472.88 109 451.76 109 430 C136.72 430 164.44 430 193 430 C193 368.62 193 307.24 193 244 C164.62 244 136.24 244 107 244 Z
    M235.125 55.5 C237.04953003 55.50640503 237.04953003 55.50640503 239.01293945 55.51293945 C248.90301719 55.69005089 256.95629532 56.96322923 265.875 61 C266.80699219 61.38414063 267.73898437 61.76828125 268.69921875 62.1640625 C275.20662654 65.09389082 280.54539173 69.30242861 285.875 74 C286.638125 74.66773437 287.40125 75.33546875 288.1875 76.0234375 C300.85736032 87.85743898 309.39246288 103.5968917 310.4140625 120.96875 C310.83767449 134.41952242 310.40555746 146.61508144 304.875 159 C304.4521875 160.04414063 304.029375 161.08828125 303.59375 162.1640625 C295.95050144 179.36137176 281.05887313 191.87444957 263.875 199 C243.78293822 206.13165333 224.1633611 206.29582632 204.64550781 197.26416016 C186.1500777 188.25923555 172.47227377 173.45966781 165.59277344 154.0144043 C159.32767668 135.35216562 159.94437519 114.88921536 168.70703125 97.11328125 C179.04845099 77.59475909 194.74346996 64.44556844 215.484375 57.30859375 C221.926586 55.47050628 228.34074904 55.46657569 235.125 55.5 Z"/>
</svg>
