<?xml version="1.0" encoding="UTF-8"?>
<svg version="1.1" xmlns="http://www.w3.org/2000/svg" width="358" height="108">
<path d="M0 0 C6.27 -0.0825 12.54 -0.165 19 -0.25 C20.96324219 -0.28641602 22.92648438 -0.32283203 24.94921875 -0.36035156 C26.52863476 -0.3720486 28.10806295 -0.38223801 29.6875 -0.390625 C30.88922852 -0.4213208 30.88922852 -0.4213208 32.11523438 -0.45263672 C39.11224523 -0.45691362 44.28847234 1.55156266 49.49609375 6.25390625 C50.13675781 7.01574219 50.77742188 7.77757812 51.4375 8.5625 C52.09621094 9.32691406 52.75492188 10.09132813 53.43359375 10.87890625 C57.29249591 16.10430244 56.42023515 22.80344172 56 29 C53.65908508 35.89953871 48.28891153 40.54726426 42 44 C39.36 44.33 36.72 44.66 34 45 C34 56.88 34 68.76 34 81 C39.28 81 44.56 81 50 81 C50 85.29 50 89.58 50 94 C33.5 94 17 94 0 94 C0 89.71 0 85.42 0 81 C5.28 81 10.56 81 16 81 C16 69.12 16 57.24 16 45 C10.72 45 5.44 45 0 45 C0 30.15 0 15.3 0 0 Z M13.609375 13.58203125 C10.94850609 17.73261198 10.24043795 21.18944032 11 26 C12.92897407 30.61758837 15.04326428 33.40429663 19.3125 36.0625 C23.62269722 37.15831285 26.78339769 37.51005523 31 36 C34.8087467 33.54156042 37.54915219 31.35254344 39 27 C39.41110876 22.77822931 39.47543683 19.12603459 37.8125 15.1875 C34.55152955 11.25184601 32.21214851 9.31794059 27.1875 8 C21.78341432 7.59137348 17.19599785 9.50174401 13.609375 13.58203125 Z " fill="#000000" transform="translate(0,3)"/>
<path d="M0 0 C5.61005911 4.42131053 7.81397715 8.74031915 9.7265625 15.59375 C9.7265625 19.88375 9.7265625 24.17375 9.7265625 28.59375 C-2.4834375 28.59375 -14.6934375 28.59375 -27.2734375 28.59375 C-24.39516949 37.23235517 -24.39516949 37.23235517 -20.2734375 39.59375 C-16.8856825 40.13923597 -13.65980424 40.15632383 -10.2734375 39.59375 C-8.56662803 37.96821717 -6.89683555 36.30259005 -5.2734375 34.59375 C-0.12400833 34.09541815 4.64171137 34.74627481 9.7265625 35.59375 C9.27403912 40.57150723 7.19779485 44.10659456 3.7265625 47.59375 C-4.27235184 53.12491417 -12.35089064 54.29944568 -21.8359375 53.03125 C-29.11915762 51.47571077 -34.93039262 48.00873301 -39.2109375 41.84375 C-43.71998949 33.60575882 -43.97687398 24.68691453 -42.2734375 15.59375 C-39.54937249 7.04715742 -35.42550084 1.91557959 -27.58984375 -2.390625 C-18.71456656 -6.28197756 -8.14631619 -5.03895847 0 0 Z M-23.2734375 10.59375 C-26.32635051 14.18251243 -26.32635051 14.18251243 -27.2734375 18.59375 C-20.0134375 18.59375 -12.7534375 18.59375 -5.2734375 18.59375 C-5.65486833 12.78993266 -5.65486833 12.78993266 -8.5234375 10.28125 C-14.21187691 6.79061672 -17.42964827 7.29997789 -23.2734375 10.59375 Z " fill="#000000" transform="translate(95.2734375,45.40625)"/>
<path d="M0 0 C3.70289712 2.9228887 5.62795351 5.86499621 6.875 10.4375 C6.9575 11.18 7.04 11.9225 7.125 12.6875 C5.19729125 14.61520875 1.94148514 13.99327945 -0.625 14.0625 C-7.45962843 14.04869267 -7.45962843 14.04869267 -10.75 11.1875 C-11.45125 10.3625 -12.1525 9.5375 -12.875 8.6875 C-16.4432467 7.88821274 -19.69975996 7.95297498 -22.875 9.9375 C-24.20575929 11.93040136 -24.20575929 11.93040136 -23.875 15.6875 C-22.08255859 16.05101562 -22.08255859 16.05101562 -20.25390625 16.421875 C-0.46726944 20.54426424 -0.46726944 20.54426424 5.625 25.875 C8.40732841 31.09186578 8.66329636 35.70253219 7.125 41.375 C4.12338335 46.34642757 0.57699595 49.54323522 -4.6875 52 C-14.42855835 54.10101258 -24.19396636 54.57966258 -33.3125 49.9375 C-38.10281053 45.73137368 -41.39675521 42.38292706 -41.875 35.6875 C-36.56698695 34.5100862 -31.28542182 33.88113906 -25.875 34.6875 C-24.25 37.125 -24.25 37.125 -22.875 39.6875 C-19.06406904 40.86689836 -15.43090213 41.25353118 -11.65234375 39.87890625 C-9.54998565 38.73235743 -9.54998565 38.73235743 -8.875 35.6875 C-12.04567533 32.08699612 -15.64389466 31.59853726 -20.1875 30.6875 C-27.46388184 29.20585538 -34.11511574 27.72162898 -38.89453125 21.48828125 C-41.50694474 16.69018316 -41.26362323 12.05911139 -39.8125 6.9375 C-35.9523261 0.46236959 -31.55975444 -1.94009464 -24.453125 -3.8125 C-16.21417753 -5.41035648 -7.10594731 -4.74725051 0 0 Z " fill="#000000" transform="translate(194.875,45.3125)"/>
<path d="M0 0 C0.495 0.495 0.495 0.495 1 1 C0.9140625 2.9609375 0.9140625 2.9609375 0.625 5.375 C0.48964844 6.56222656 0.48964844 6.56222656 0.3515625 7.7734375 C0 10 0 10 -1 13 C-2.093125 12.95875 -3.18625 12.9175 -4.3125 12.875 C-8.08892229 12.67925334 -8.08892229 12.67925334 -11 15 C-11.73343428 18.06556598 -11.73343428 18.06556598 -12 21 C-8.37 21 -4.74 21 -1 21 C-1 24.96 -1 28.92 -1 33 C-4.63 33 -8.26 33 -12 33 C-12 47.19 -12 61.38 -12 76 C-17.28 76 -22.56 76 -28 76 C-28 61.81 -28 47.62 -28 33 C-30.64 33 -33.28 33 -36 33 C-36 29.04 -36 25.08 -36 21 C-33.36 21 -30.72 21 -28 21 C-28.0928125 19.2365625 -28.0928125 19.2365625 -28.1875 17.4375 C-28.15597098 11.4890252 -26.43662929 7.46927995 -22.25 3.1875 C-15.03719911 -1.66726983 -8.32580466 -1.30008622 0 0 Z " fill="#000000" transform="translate(270,21)"/>
<path d="M0 0 C5.28 0 10.56 0 16 0 C16 4.29 16 8.58 16 13 C19.3 13 22.6 13 26 13 C26 16.96 26 20.92 26 25 C22.7 25 19.4 25 16 25 C16.11798252 29.11193736 16.24221059 33.22363288 16.37231445 37.33520508 C16.41571434 38.73489199 16.45738564 40.13463359 16.49731445 41.53442383 C16.55489445 43.54261495 16.61914 45.55061149 16.68359375 47.55859375 C16.72025146 48.76829834 16.75690918 49.97800293 16.79467773 51.22436523 C16.68938266 53.90705456 16.68938266 53.90705456 18 55 C20.32817964 55.36760731 22.6618385 55.70241581 25 56 C26.13764351 60.26616316 27 63.56486311 27 68 C20.84705161 70.0509828 13.55515143 69.85171714 7.4375 67.8125 C4.13569497 65.35731164 1.84005811 62.68011621 0 59 C-0.08658569 56.44637396 -0.11562516 53.9204558 -0.09765625 51.3671875 C-0.0962413 50.61535187 -0.09482635 49.86351624 -0.09336853 49.08889771 C-0.08776465 46.6842249 -0.07521157 44.27964473 -0.0625 41.875 C-0.0574855 40.24609509 -0.0529225 38.61718873 -0.04882812 36.98828125 C-0.03779397 32.99215173 -0.02052679 28.99609158 0 25 C-2.64 25 -5.28 25 -8 25 C-8 21.04 -8 17.08 -8 13 C-5.36 13 -2.72 13 0 13 C0 8.71 0 4.42 0 0 Z " fill="#000000" transform="translate(281,29)"/>
<path d="M0 0 C1 1 1 1 1.09765625 4.16015625 C1.08605469 5.44792969 1.07445312 6.73570313 1.0625 8.0625 C1.05347656 9.35285156 1.04445312 10.64320312 1.03515625 11.97265625 C1.02355469 12.97167969 1.01195312 13.97070312 1 15 C0.41992188 14.97679687 -0.16015625 14.95359375 -0.7578125 14.9296875 C-7.60949971 14.76140178 -7.60949971 14.76140178 -14 17 C-15.9875004 21.55251384 -16.33213711 25.90480617 -16.4140625 30.8046875 C-16.43342865 31.5286673 -16.4527948 32.25264709 -16.4727478 32.99856567 C-16.53209886 35.29059398 -16.57874878 37.58267374 -16.625 39.875 C-16.66322087 41.43752081 -16.70227494 43.00002148 -16.7421875 44.5625 C-16.83931845 48.37488981 -16.91923599 52.18708846 -17 56 C-22.28 56 -27.56 56 -33 56 C-33 37.85 -33 19.7 -33 1 C-27.72 1 -22.44 1 -17 1 C-16.67 2.65 -16.34 4.3 -16 6 C-15.071875 5.195625 -14.14375 4.39125 -13.1875 3.5625 C-9.00765838 -0.06002941 -5.45917457 -0.20219165 0 0 Z " fill="#000000" transform="translate(147,41)"/>
<path d="M0 0 C5.28 0 10.56 0 16 0 C16 18.15 16 36.3 16 55 C10.72 55 5.44 55 0 55 C0 36.85 0 18.7 0 0 Z " fill="#000000" transform="translate(211,42)"/>
<path d="M0 0 C3.48326597 0.85529699 4.97293913 2.60978164 6.97265625 5.484375 C7.64525365 9.1462942 7.49788119 10.70704208 5.41015625 13.796875 C2.17573817 16.03608752 -0.10780896 16.41561123 -4.02734375 16.484375 C-6.97490107 15.13875101 -8.57011647 14.39882956 -10.02734375 11.484375 C-10.43350604 7.82891435 -10.24168628 5.89519818 -8.52734375 2.609375 C-5.667774 0.17874072 -3.74624162 -0.25208355 0 0 Z " fill="#000000" transform="translate(221.02734375,19.515625)"/>
</svg>
