<?xml version="1.0" encoding="UTF-8"?>
<svg version="1.1" xmlns="http://www.w3.org/2000/svg" width="500" height="500">
<path d="M0 0 C165 0 330 0 500 0 C500 165 500 330 500 500 C335 500 170 500 0 500 C0 335 0 170 0 0 Z " fill="#000000" transform="translate(0,0)"/>
<path d="M0 0 C40.2496875 -0.0928125 40.2496875 -0.0928125 81.3125 -0.1875 C89.75368408 -0.21481201 98.19486816 -0.24212402 106.8918457 -0.27026367 C117.27966309 -0.28381348 117.27966309 -0.28381348 122.15812683 -0.28633118 C125.53152001 -0.28910176 128.90476842 -0.3002455 132.27812195 -0.31672668 C173.08838314 -0.50703995 207.2811382 4.5538594 238 34 C238.886875 34.845625 239.77375 35.69125 240.6875 36.5625 C241.450625 37.366875 242.21375 38.17125 243 39 C243.51820313 39.53496094 244.03640625 40.06992187 244.5703125 40.62109375 C264.46064805 62.07233007 271.03493643 89.53625693 270 118 C268.57241526 137.98618636 259.12564489 158.12426912 246 173 C245.31292969 173.81855469 244.62585938 174.63710937 243.91796875 175.48046875 C225.00699354 197.45808859 195.85743519 212.55391793 167 216 C162.71 216 158.42 216 154 216 C154 277.71 154 339.42 154 403 C176.77 403 199.54 403 223 403 C223 419.83 223 436.66 223 454 C149.41 454 75.82 454 0 454 C0 437.17 0 420.34 0 403 C25.08 403 50.16 403 76 403 C76 341.29 76 279.58 76 216 C50.92 216 25.84 216 0 216 C0 144.72 0 73.44 0 0 Z " fill="#FEFEFE" transform="translate(115,23)"/>
<path d="M0 0 C14.24786345 12.23977531 24.43590749 29.05948242 26 48 C27.44040235 70.4518231 21.56197492 89.81534217 6.8125 107.0625 C-4.2750832 119.00155036 -21.49156604 129.1507178 -38.15625 130.1262207 C-61.49903964 130.85337445 -80.19230434 125.72420573 -97.5625 109.625 C-98.366875 108.75875 -99.17125 107.8925 -100 107 C-100.59296875 106.42378906 -101.1859375 105.84757812 -101.796875 105.25390625 C-114.0692678 92.67232526 -120.29940033 74.81389084 -120.4375 57.4375 C-120.1178189 37.35753067 -112.52678239 18.99248646 -98.6875 4.3125 C-71.20905239 -21.70043041 -29.60942796 -23.14115401 0 0 Z " fill="#000000" transform="translate(287,74)"/>
</svg>
